HIERARCHY
ROOT Hips
{
  OFFSET 47.2107 84.165 14.4796
  CHANNELS 6 Xposition Yposition Zposition Zrotation Xrotation Yrotation
  JOINT spine
  {
    OFFSET 0 6.24479 0.359107
    CHANNELS 3 Zrotation Xrotation Yrotation
    JOINT spine1
    {
      OFFSET 0 9.06941 0
      CHANNELS 3 Zrotation Xrotation Yrotation
      JOINT spine2
      {
        OFFSET 0 8.69014 0
        CHANNELS 3 Zrotation Xrotation Yrotation
        JOINT Neck
        {
          OFFSET 0 22.3112 1.06372
          CHANNELS 3 Zrotation Xrotation Yrotation
          JOINT Head
          {
            OFFSET 0 6.74081 0
            CHANNELS 3 Zrotation Xrotation Yrotation
            End Site
            {
              OFFSET 0 16.3165 -5.38097
            }
          }
        }
        JOINT RightShoulder
        {
          OFFSET -3.65916 9.38468 -0.509514
          CHANNELS 3 Zrotation Xrotation Yrotation
          JOINT RightArm
          {
            OFFSET 0 12.3089 0
            CHANNELS 3 Zrotation Xrotation Yrotation
            JOINT RightArmRoll
            {
              OFFSET 0 6.21375 0
              CHANNELS 3 Zrotation Xrotation Yrotation
              JOINT RightForeArm
              {
                OFFSET 0 18.0985 0
                CHANNELS 3 Zrotation Xrotation Yrotation
                JOINT RightForeArmRoll
                {
                  OFFSET 0 6.97279 0
                  CHANNELS 3 Zrotation Xrotation Yrotation
                  JOINT RightHand
                  {
                    OFFSET 0 13.9928 0
                    CHANNELS 3 Zrotation Xrotation Yrotation
                    End Site
                    {
                      OFFSET 0 0 0
                    }
                  }
                }
              }
            }
          }
        }
        JOINT LeftShoulder
        {
          OFFSET 3.65916 9.38468 -0.509514
          CHANNELS 3 Zrotation Xrotation Yrotation
          JOINT LeftArm
          {
            OFFSET 0 12.3089 0
            CHANNELS 3 Zrotation Xrotation Yrotation
            JOINT LeftArmRoll
            {
              OFFSET 0 6.21375 0
              CHANNELS 3 Zrotation Xrotation Yrotation
              JOINT LeftForeArm
              {
                OFFSET 0 18.0985 0
                CHANNELS 3 Zrotation Xrotation Yrotation
                JOINT LeftForeArmRoll
                {
                  OFFSET 0 6.97279 0
                  CHANNELS 3 Zrotation Xrotation Yrotation
                  JOINT LeftHand
                  {
                    OFFSET 0 13.9929 0
                    CHANNELS 3 Zrotation Xrotation Yrotation
                    End Site
                    {
                      OFFSET 0 0 0
                    }
                  }
                }
              }
            }
          }
        }
      }
    }
  }
  JOINT RightUpLeg
  {
    OFFSET -5.53516 -1.015 -0.851454
    CHANNELS 3 Zrotation Xrotation Yrotation
    JOINT RightUpLegRoll
    {
      OFFSET 0 16.4075 0
      CHANNELS 3 Zrotation Xrotation Yrotation
      JOINT RightLeg
      {
        OFFSET 0 -20.3181 0
        CHANNELS 3 Zrotation Xrotation Yrotation
        JOINT RightLegRoll
        {
          OFFSET 0 20.3846 0
          CHANNELS 3 Zrotation Xrotation Yrotation
          JOINT RightFoot
          {
            OFFSET 0 16.9668 0
            CHANNELS 3 Zrotation Xrotation Yrotation
            JOINT RightToeBase
            {
              OFFSET 0 14.1834 0
              CHANNELS 3 Zrotation Xrotation Yrotation
              End Site
              {
                OFFSET 0.0060118 6.8689 -0.791745
              }
            }
          }
        }
      }
    }
  }
  JOINT LeftUpLeg
  {
    OFFSET 5.53516 -1.015 -0.851454
    CHANNELS 3 Zrotation Xrotation Yrotation
    JOINT LeftUpLegRoll
    {
      OFFSET 0 16.4076 0
      CHANNELS 3 Zrotation Xrotation Yrotation
      JOINT LeftLeg
      {
        OFFSET 0 20.3181 0
        CHANNELS 3 Zrotation Xrotation Yrotation
        JOINT LeftLegRoll
        {
          OFFSET 0 20.5731 0
          CHANNELS 3 Zrotation Xrotation Yrotation
          JOINT LeftFoot
          {
            OFFSET 0 16.7783 0
            CHANNELS 3 Zrotation Xrotation Yrotation
            JOINT LeftToeBase
            {
              OFFSET 0 14.1834 0
              CHANNELS 3 Zrotation Xrotation Yrotation
              End Site
              {
                OFFSET -0.0269423 6.8689 -0.791746
              }
            }
          }
        }
      }
    }
  }
}
MOTION
Frames: 13
Frame Time: 0.00208333
47.165 84.1708 13.7975 -0.366006 -0.716896 -4.40658 -0.226 -1.49985 0.103481 -0.450497 1.00264 0.224018 -0.453459 2.64769 0.231626 6.18349 11.4405 2.03086 -2.22979 -9.41798 3.57997 66.0191 -1.14131 -1.4212 122.436 30.4729 -58.8994 -3.83566e-006 1.08972e-007 -1.19175e-005 -151.654 86.3356 142.372 -4.14683e-006 7.4052e-006 -3 8.03009 -4.95124 0.69762 -60.1529 -7.63253 4.75883 -123.933 24.3177 55.0429 -9.54166e-015 -7.95139e-015 6.36111e-015 -31.6727 83.5279 35.886 8.74259e-006 6.51771e-006 3.00001 -8.0301 -4.95125 -0.697616 176.7 6.36154 0.58855 180 7.01593e-015 179.144 179.216 11.1267 179.084 1.11929e-006 1.24137e-006 0.0825625 -15.6337 68.7955 20.1214 8.1365 25.2327 -3.48774 -175.5 0.0826002 -3.38383 4.54188e-006 -4.6773e-006 -1.04419 -1.43329 -11.2572 0.653405 -1.59214e-006 2.67224e-006 -0.310086 23.4359 73.2493 -25.1502 -8.13586 25.2366 3.48725 
47.1653 84.173 13.7926 -0.366347 -0.711415 -4.41279 -0.225345 -1.50104 0.104188 -0.449712 1.00025 0.226306 -0.452695 2.6453 0.233898 6.15659 11.47 2.044 -2.19852 -9.4624 3.59061 66.0079 -1.12648 -1.41202 122.352 30.4334 -58.6293 -3.83566e-006 1.08972e-007 -1.19175e-005 -151.704 86.3732 142.46 -4.14683e-006 7.4052e-006 -3 8.03009 -4.95124 0.69762 -60.1466 -7.65769 4.77405 -123.856 24.2472 54.9023 8.82781e-032 -1.59028e-015 3.18055e-015 -31.4887 83.5739 35.7354 8.74259e-006 6.51771e-006 3.00001 -8.0301 -4.95125 -0.697616 176.71 6.37672 0.569685 180 7.01593e-015 179.144 179.237 11.1419 179.079 1.11929e-006 1.24137e-006 0.0825341 -15.623 68.7946 20.1201 8.1365 25.2327 -3.48774 -175.501 0.0956932 -3.38032 4.54188e-006 -4.6773e-006 -1.04363 -1.42972 -11.273 0.654479 -1.59214e-006 2.67224e-006 -0.310077 23.4382 73.2572 -25.161 -8.13586 25.2366 3.48725 
47.1618 84.1767 13.7916 -0.367551 -0.707802 -4.41809 -0.224416 -1.50207 0.104872 -0.448544 0.998156 0.228772 -0.451548 2.64321 0.236343 6.12883 11.5024 2.05627 -2.16567 -9.50565 3.60057 65.9983 -1.10791 -1.401 122.264 30.3899 -58.342 -3.83566e-006 1.08972e-007 -1.19175e-005 -151.777 86.4094 142.572 -4.14683e-006 7.4052e-006 -3 8.03009 -4.95124 0.69762 -60.1439 -7.67998 4.78763 -123.777 24.1774 54.7537 3.53113e-031 -6.36111e-015 3.18055e-015 -31.2837 83.6234 35.5668 8.74259e-006 6.51771e-006 3.00001 -8.0301 -4.95125 -0.697616 176.724 6.39022 0.547033 180 7.01593e-015 179.145 179.263 11.1591 179.073 1.11929e-006 1.24137e-006 0.0825057 -15.6107 68.7938 20.119 8.1365 25.2327 -3.48774 -175.5 0.108536 -3.37715 4.54188e-006 -4.6773e-006 -1.04299 -1.42526 -11.2928 0.655833 -1.59214e-006 2.67224e-006 -0.310112 23.4415 73.2673 -25.1747 -8.13586 25.2366 3.48726 
47.1631 84.1767 13.7929 -0.369522 -0.705854 -4.42258 -0.22325 -1.50296 0.105538 -0.447041 0.996352 0.231389 -0.450066 2.6414 0.238932 6.10032 11.537 2.06778 -2.13156 -9.54752 3.60992 65.9901 -1.0861 -1.38839 122.175 30.3428 -58.0393 -3.83566e-006 1.08972e-007 -1.19175e-005 -151.873 86.4442 142.708 -4.14683e-006 7.4052e-006 -3 8.03009 -4.95124 0.69762 -60.1444 -7.69967 4.79973 -123.695 24.1084 54.5981 -1.27222e-014 2.06736e-014 -6.36111e-015 -31.0593 83.6761 35.3813 8.74259e-006 6.51771e-006 3.00001 -8.0301 -4.95125 -0.697616 176.74 6.40212 0.5212 180 7.01593e-015 179.145 179.293 11.178 179.067 1.11929e-006 1.24137e-006 0.0824773 -15.5971 68.7932 20.118 8.1365 25.2327 -3.48774 -175.498 0.121037 -3.37445 4.54188e-006 -4.6773e-006 -1.04228 -1.42016 -11.3159 0.657405 -1.59214e-006 2.67224e-006 -0.310178 23.4456 73.2792 -25.1908 -8.13586 25.2367 3.48726 
47.1617 84.1729 13.7767 -0.372167 -0.705366 -4.42636 -0.221887 -1.50371 0.106194 -0.445248 0.994824 0.234127 -0.448296 2.63988 0.241637 6.0712 11.5733 2.07865 -2.09649 -9.58781 3.61873 65.9833 -1.06152 -1.37443 122.083 30.2924 -57.7228 -3.83566e-006 1.08972e-007 -1.19175e-005 -151.989 86.4779 142.865 -4.14683e-006 7.4052e-006 -3 8.03009 -4.95124 0.69762 -60.1475 -7.71704 4.81051 -123.612 24.0408 54.4362 6.36111e-015 -4.77083e-015 9.54166e-015 -30.817 83.7317 35.1802 8.74259e-006 6.51771e-006 3.00001 -8.0301 -4.95125 -0.697616 176.758 6.41252 0.492795 180 7.01593e-015 179.145 179.326 11.1981 179.059 1.11929e-006 1.24137e-006 0.0824489 -15.5825 68.7926 20.1171 8.1365 25.2327 -3.48774 -175.495 0.133101 -3.37229 4.54188e-006 -4.6773e-006 -1.04152 -1.41469 -11.3415 0.659132 -1.59214e-006 2.67224e-006 -0.310263 23.4502 73.2923 -25.2087 -8.13586 25.2367 3.48727 
47.1606 84.176 13.7797 -0.375392 -0.706134 -4.42952 -0.220366 -1.50432 0.106844 -0.443213 0.993562 0.236957 -0.446285 2.63861 0.244431 6.04159 11.6106 2.08901 -2.06077 -9.62632 3.62709 65.9776 -1.03468 -1.35935 121.991 30.2393 -57.3945 -3.83566e-006 1.08972e-007 -1.19175e-005 -152.125 86.5105 143.042 -4.14683e-006 7.4052e-006 -3 8.03009 -4.95124 0.69762 -60.1531 -7.73239 4.82013 -123.528 23.9749 54.269 3.18055e-015 -1.59028e-014 6.36111e-015 -30.558 83.79 34.9645 8.74259e-006 6.51771e-006 3.00001 -8.0301 -4.95125 -0.697616 176.777 6.4215 0.462425 180 7.01593e-015 179.145 179.361 11.219 179.051 1.11929e-006 1.24137e-006 0.0824203 -15.5672 68.7921 20.1163 8.1365 25.2327 -3.48774 -175.491 0.144636 -3.3708 4.54188e-006 -4.6773e-006 -1.04071 -1.40913 -11.369 0.660953 -1.59214e-006 2.67224e-006 -0.310355 23.4551 73.3064 -25.228 -8.13587 25.2367 3.48727 
47.1638 84.182 13.7839 -0.379101 -0.707954 -4.43215 -0.218725 -1.50481 0.107497 -0.440985 0.992553 0.239851 -0.444079 2.63761 0.247285 6.01163 11.6484 2.09897 -2.02471 -9.66285 3.63508 65.9727 -1.00605 -1.34342 121.898 30.1838 -57.0561 -3.83566e-006 1.08972e-007 -1.19175e-005 -152.277 86.5421 143.236 -4.14683e-006 7.4052e-006 -3 8.03009 -4.95124 0.69762 -60.1607 -7.74599 4.82874 -123.444 23.911 54.0973 -1.59028e-014 3.18055e-015 6.36111e-015 -30.2842 83.8506 34.7356 8.74259e-006 6.51771e-006 3.00001 -8.0301 -4.95125 -0.697616 176.798 6.42917 0.4307 180 7.01593e-015 179.146 179.398 11.2403 179.042 1.11929e-006 1.24137e-006 0.0823918 -15.5514 68.7916 20.1156 8.1365 25.2327 -3.48774 -175.487 0.155549 -3.37008 4.54188e-006 -4.6773e-006 -1.03987 -1.40373 -11.3975 0.662803 -1.59214e-006 2.67224e-006 -0.310441 23.4602 73.321 -25.2479 -8.13587 25.2368 3.48727 
47.1633 84.1858 13.7803 -0.383202 -0.710621 -4.43435 -0.217004 -1.50518 0.108157 -0.438608 0.991787 0.242779 -0.441726 2.63684 0.250171 5.98144 11.686 2.10866 -1.9886 -9.69719 3.64276 65.9687 -0.976129 -1.32687 121.806 30.1266 -56.7094 -3.83566e-006 1.08972e-007 -1.19175e-005 -152.445 86.5728 143.446 -4.14683e-006 7.4052e-006 -3 8.03009 -4.95124 0.69762 -60.17 -7.75812 4.8365 -123.36 23.8495 53.9222 -2.22639e-014 3.33958e-014 -1.59028e-014 -29.9969 83.9132 34.4948 8.74259e-006 6.51771e-006 3.00001 -8.0301 -4.95125 -0.697616 176.82 6.43562 0.398227 180 7.01593e-015 179.146 179.436 11.2615 179.034 1.11929e-006 1.24137e-006 0.0823632 -15.5354 68.7912 20.115 8.1365 25.2327 -3.48774 -175.481 0.165747 -3.37021 4.54188e-006 -4.6773e-006 -1.039 -1.39877 -11.4265 0.664622 -1.59214e-006 2.67224e-006 -0.310509 23.4653 73.3357 -25.2681 -8.13587 25.2368 3.48728 
47.1631 84.1419 13.7725 -0.3876 -0.713932 -4.43622 -0.215241 -1.50544 0.108832 -0.436132 0.991251 0.245713 -0.439274 2.6363 0.253062 5.95116 11.723 2.11818 -1.95276 -9.72916 3.65023 65.9652 -0.945401 -1.30994 121.715 30.0683 -56.3561 -3.83566e-006 1.08972e-007 -1.19175e-005 -152.626 86.6027 143.669 -4.14683e-006 7.4052e-006 -3 8.03009 -4.95124 0.69762 -60.1805 -7.76906 4.84358 -123.276 23.7909 53.7443 -3.18055e-014 1.90833e-014 -6.36111e-015 -29.6979 83.9775 34.2433 8.74259e-006 6.51771e-006 3.00001 -8.0301 -4.95125 -0.697616 176.843 6.44093 0.365614 180 7.01593e-015 179.146 179.474 11.2822 179.025 1.11929e-006 1.24137e-006 0.0823345 -15.5197 68.7909 20.1145 8.1365 25.2327 -3.48774 -175.475 0.175136 -3.37132 4.54188e-006 -4.6773e-006 -1.03812 -1.3945 -11.4552 0.666345 -1.59214e-006 2.67224e-006 -0.310547 23.47 73.3501 -25.288 -8.13587 25.2368 3.48728 
47.1602 84.1477 13.7725 -0.392199 -0.717682 -4.43785 -0.213475 -1.50559 0.109528 -0.433603 0.990935 0.248623 -0.436769 2.63599 0.255928 5.9209 11.7586 2.12766 -1.91749 -9.75854 3.65755 65.962 -0.914357 -1.29288 121.626 30.0094 -55.9981 -3.83566e-006 1.08972e-007 -1.19175e-005 -152.817 86.632 143.904 -4.14683e-006 7.4052e-006 -3 8.03009 -4.95124 0.69762 -60.1919 -7.77909 4.85013 -123.193 23.7356 53.5646 -2.22639e-014 2.8625e-014 -1.90833e-014 -29.3889 84.0434 33.9828 8.74259e-006 6.51771e-006 3.00001 -8.0301 -4.95125 -0.697616 176.865 6.44521 0.333469 180 7.01593e-015 179.146 179.511 11.302 179.017 1.11929e-006 1.24137e-006 0.0823058 -15.5044 68.7905 20.114 8.1365 25.2327 -3.48774 -175.468 0.183625 -3.3735 4.54188e-006 -4.6773e-006 -1.03723 -1.3912 -11.4828 0.66791 -1.59214e-006 2.67224e-006 -0.310542 23.4743 73.3639 -25.3069 -8.13587 25.2368 3.48729 
47.157 84.1435 13.7716 -0.396906 -0.721666 -4.43933 -0.211746 -1.50565 0.110252 -0.431067 0.990826 0.25148 -0.434258 2.63588 0.258742 5.89081 11.7922 2.13722 -1.8831 -9.78513 3.6648 65.9591 -0.883484 -1.27594 121.54 29.9508 -55.637 -3.83566e-006 1.08972e-007 -1.19175e-005 -153.017 86.6607 144.147 -4.14683e-006 7.4052e-006 -3 8.03009 -4.95124 0.69762 -60.2038 -7.78851 4.85632 -123.112 23.684 53.384 -6.36111e-015 1.43125e-014 -6.36111e-015 -29.0718 84.1104 33.7146 8.74259e-006 6.51771e-006 3.00001 -8.0301 -4.95125 -0.697616 176.887 6.44855 0.302401 180 7.01593e-015 179.146 179.546 11.3204 179.009 1.11929e-006 1.24137e-006 0.082277 -15.4899 68.7902 20.1136 8.1365 25.2327 -3.48774 -175.461 0.191118 -3.37685 4.54188e-006 -4.6773e-006 -1.03635 -1.38912 -11.5086 0.669255 -1.59214e-006 2.67224e-006 -0.310482 23.4778 73.3765 -25.3244 -8.13588 25.2369 3.48729 
47.1579 84.1358 13.7709 -0.401626 -0.725681 -4.44076 -0.210092 -1.50561 0.111009 -0.428574 0.990913 0.254257 -0.431788 2.63597 0.261476 5.86101 11.8234 2.14698 -1.84989 -9.80873 3.67207 65.9561 -0.853272 -1.25935 121.457 29.8931 -55.2746 -3.83566e-006 1.08972e-007 -1.19175e-005 -153.224 86.6891 144.397 -4.14683e-006 7.4052e-006 -3 8.03009 -4.95124 0.69762 -60.2158 -7.79758 4.86229 -123.033 23.6367 53.2034 -3.18055e-015 -3.18055e-015 6.36111e-015 -28.7485 84.1784 33.4406 8.74259e-006 6.51771e-006 3.00001 -8.0301 -4.95125 -0.697616 176.907 6.45103 0.273017 180 7.01593e-015 179.146 179.58 11.337 179.001 1.11929e-006 1.24137e-006 0.0822481 -15.4764 68.7899 20.1132 8.1365 25.2327 -3.48774 -175.452 0.197525 -3.38147 4.54188e-006 -4.6773e-006 -1.03549 -1.38855 -11.532 0.670316 -1.59214e-006 2.67224e-006 -0.310355 23.4803 73.3877 -25.3398 -8.13588 25.2369 3.4873 
47.1554 84.1489 13.7857 -0.406264 -0.729521 -4.44224 -0.208552 -1.50548 0.111806 -0.426169 0.991185 0.256923 -0.429407 2.63624 0.264101 5.83163 11.8514 2.15705 -1.81817 -9.82914 3.67943 65.953 -0.824208 -1.24336 121.377 29.8374 -54.9127 -3.83566e-006 1.08972e-007 -1.19175e-005 -153.436 86.7171 144.652 -4.14683e-006 7.4052e-006 -3 8.03009 -4.95124 0.69762 -60.2276 -7.80659 4.86822 -122.956 23.594 53.0235 -1.59028e-014 1.27222e-014 -0 -28.4211 84.247 33.1624 8.74259e-006 6.51771e-006 3.00001 -8.0301 -4.95125 -0.697616 176.927 6.45275 0.245926 180 7.01593e-015 179.146 179.611 11.3514 178.994 1.11929e-006 1.24137e-006 0.0822191 -15.4644 68.7896 20.1127 8.1365 25.2327 -3.48774 -175.444 0.202751 -3.38748 4.54188e-006 -4.6773e-006 -1.03465 -1.38974 -11.5521 0.67103 -1.59214e-006 2.67224e-006 -0.310147 23.4817 73.397 -25.3527 -8.13588 25.2369 3.4873 
